<?xml version="1.0" encoding="UTF-8"?>
<svg width="56px" height="58px" viewBox="0 0 56 58" version="1.1" xmlns="http://www.w3.org/2000/svg" xmlns:xlink="http://www.w3.org/1999/xlink">
    <title>小学部</title>
    <g id="教师频道-校园生活" stroke="none" stroke-width="1" fill="none" fill-rule="evenodd">
        <g id="14-教师风采" transform="translate(-312.000000, -769.000000)" fill="#FFFFFF" fill-rule="nonzero">
            <g id="小学部" transform="translate(260.000000, 730.000000)">
                <path d="M79.8070629,39 C83.6737296,39 87.0570629,41.6583333 88.0237296,45.4041667 C95.8778963,48.6172348 101.388074,56.2838824 101.553246,65.1722455 L101.557063,65.5833333 L101.557063,75.25 L104.457063,75.25 C105.250032,75.25 105.830598,75.6748047 105.999635,76.3252868 L106.027896,76.4583333 L107.59873,90.9583333 C107.712455,91.6406863 107.183966,92.1089677 106.416221,92.1616986 L106.269563,92.1666667 L101.557063,92.1666667 C101.557063,94.7531532 99.4980417,96.8820794 96.9381776,96.9952671 L96.7237296,97 L62.8903962,97 C60.3039097,97 58.1749835,94.9409788 58.0617958,92.3811147 L58.0570629,92.1666667 L53.3445629,92.1666667 C52.5484844,92.1666666 51.9664775,91.7385236 52.0015003,91.0837167 L52.0153962,90.9583333 L53.5862296,76.4583333 C53.6995108,75.7786458 54.2375968,75.3113607 55.0013602,75.2556051 L55.1570629,75.25 L58.0570629,75.25 L58.0570629,65.5833333 C58.0570629,56.5208333 63.6153962,48.6666667 71.5903962,45.4041667 C72.5570629,41.6583333 75.8195629,39 79.8070629,39 Z M79.8070629,46.25 C69.2868502,46.25 60.6590548,54.7658782 60.4766753,65.2446362 L60.4737296,65.5833333 L60.4737296,92.1666667 C60.4737296,93.4426666 61.4759695,94.4959466 62.7321103,94.5781674 L62.8903962,94.5833333 L96.7237296,94.5833333 C97.9997296,94.5833333 99.0530096,93.5810934 99.1352304,92.3249526 L99.1403962,92.1666667 L99.1403962,65.5833333 C99.1403962,54.95 90.4403962,46.25 79.8070629,46.25 Z M91.8903962,65.5833333 C94.4768827,65.5833333 96.605809,67.6423546 96.7189967,70.2022187 L96.7237296,70.4166667 L96.7237296,87.3333333 C96.7237296,89.9198198 94.6647084,92.0487461 92.1048442,92.1619338 L91.8903962,92.1666667 L67.7237296,92.1666667 C65.1372431,92.1666667 63.0083168,90.1076454 62.8951291,87.5477813 L62.8903962,87.3333333 L62.8903962,70.4166667 C62.8903962,67.8301802 64.9494175,65.7012539 67.5092816,65.5880662 L67.7237296,65.5833333 L91.8903962,65.5833333 Z M94.3070629,75.25 L65.3070629,75.25 L65.3070629,87.3333333 C65.3070629,88.6093333 66.3093029,89.6626133 67.5654437,89.7448341 L67.7237296,89.75 L91.8903962,89.75 C93.1663962,89.75 94.2196762,88.74776 94.301897,87.4916192 L94.3070629,87.3333333 L94.3070629,75.25 Z M58.0570629,77.6666667 L56.0028962,77.6666667 L54.6737296,89.75 L58.0570629,89.75 L58.0570629,77.6666667 Z M103.732063,77.6666667 L101.557063,77.6666667 L101.557063,89.75 L105.06123,89.75 L103.732063,77.6666667 Z M91.8903962,68 L67.7237296,68 C66.4477296,68 65.3944496,69.00224 65.3122288,70.2583808 L65.3070629,70.4166667 L65.3070629,72.8333333 L94.3070629,72.8333333 L94.3070629,70.4166667 C94.3070629,69.0875 93.2195629,68 91.8903962,68 Z M79.8070629,48.6666667 C84.6403962,48.6666667 89.2320629,51.0833333 91.8903962,55.1916667 C92.2528962,55.7958333 92.1320629,56.5208333 91.5278962,56.8833333 C91.4070629,57.0041667 91.1653963,57.125 90.9237296,57.125 C90.5612296,57.125 90.1987296,56.8833333 89.9570629,56.5208333 C87.6612296,53.1375 83.9153962,51.0833333 79.8070629,51.0833333 C75.6987296,51.0833333 71.9528962,53.1375 69.6570629,56.5208333 C69.2945629,57.125 68.5695629,57.2458333 67.9653962,56.8833333 C67.3612295,56.5208333 67.2403962,55.7958333 67.6028962,55.3125 C70.3820629,51.0833334 74.8528962,48.6666667 79.8070629,48.6666667 Z M79.8070629,41.4166667 C77.5112296,41.4166667 75.5778962,42.625 74.4903962,44.5583333 C76.1820629,44.075 77.9945629,43.8333333 79.8070629,43.8333333 C81.6195629,43.8333333 83.3112296,44.075 85.1237296,44.5583333 C84.0362296,42.625 82.1028962,41.4166667 79.8070629,41.4166667 Z"></path>
            </g>
        </g>
    </g>
</svg>